<svg width="33" height="33" viewBox="0 0 33 33" fill="none" xmlns="http://www.w3.org/2000/svg">
<path d="M16.7778 3.06348C14.2066 3.06348 11.6932 3.82591 9.55536 5.25437C7.41752 6.68283 5.75128 8.71315 4.76734 11.0886C3.7834 13.464 3.52596 16.0779 4.02757 18.5997C4.52918 21.1214 5.76731 23.4378 7.58539 25.2559C9.40347 27.0739 11.7198 28.3121 14.2416 28.8137C16.7634 29.3153 19.3772 29.0578 21.7527 28.0739C24.1281 27.09 26.1584 25.4237 27.5869 23.2859C29.0153 21.148 29.7778 18.6346 29.7778 16.0635C29.7741 12.6168 28.4033 9.31229 25.9661 6.87511C23.529 4.43792 20.2245 3.06712 16.7778 3.06348ZM10.0378 24.751C10.7612 23.6196 11.7578 22.6885 12.9357 22.0435C14.1136 21.3986 15.4349 21.0605 16.7778 21.0605C18.1207 21.0605 19.442 21.3986 20.6199 22.0435C21.7978 22.6885 22.7944 23.6196 23.5178 24.751C21.5907 26.2497 19.2191 27.0634 16.7778 27.0634C14.3365 27.0634 11.9649 26.2497 10.0378 24.751ZM12.7778 15.0635C12.7778 14.2724 13.0124 13.499 13.4519 12.8412C13.8914 12.1834 14.5161 11.6707 15.247 11.368C15.9779 11.0652 16.7822 10.986 17.5581 11.1403C18.3341 11.2947 19.0468 11.6756 19.6062 12.235C20.1656 12.7945 20.5466 13.5072 20.7009 14.2831C20.8553 15.059 20.776 15.8633 20.4733 16.5942C20.1705 17.3251 19.6579 17.9498 19.0001 18.3894C18.3423 18.8289 17.5689 19.0635 16.7778 19.0635C15.7169 19.0635 14.6995 18.642 13.9493 17.8919C13.1992 17.1418 12.7778 16.1243 12.7778 15.0635ZM24.9978 23.3647C23.8825 21.7486 22.3143 20.4982 20.4903 19.771C21.47 18.9993 22.185 17.9415 22.5357 16.7446C22.8864 15.5477 22.8554 14.2713 22.447 13.0929C22.0387 11.9145 21.2733 10.8926 20.2572 10.1693C19.2411 9.44609 18.025 9.05745 16.7778 9.05745C15.5306 9.05745 14.3144 9.44609 13.2984 10.1693C12.2823 10.8926 11.5169 11.9145 11.1085 13.0929C10.7002 14.2713 10.6692 15.5477 11.0199 16.7446C11.3706 17.9415 12.0855 18.9993 13.0653 19.771C11.2413 20.4982 9.67307 21.7486 8.55778 23.3647C7.14849 21.7799 6.22737 19.8215 5.90533 17.7254C5.5833 15.6292 5.87408 13.4846 6.74267 11.5498C7.61126 9.61511 9.02062 7.9727 10.801 6.8204C12.5814 5.6681 14.657 5.05503 16.7778 5.05503C18.8985 5.05503 20.9741 5.6681 22.7545 6.8204C24.5349 7.9727 25.9443 9.61511 26.8129 11.5498C27.6815 13.4846 27.9723 15.6292 27.6502 17.7254C27.3282 19.8215 26.4071 21.7799 24.9978 23.3647Z" fill="white"/>
</svg>
